<svg width="191" height="40" viewBox="0 0 191 40" fill="none" xmlns="http://www.w3.org/2000/svg">
<path d="M37.2685 29C37.0352 29 36.9185 28.8833 36.9185 28.65V26.018C36.9185 25.8967 36.9232 25.7987 36.9325 25.724C36.9512 25.6493 37.0072 25.5887 37.1005 25.542L40.7685 23.862V21.37L37.1565 19.13C36.9979 19.0367 36.9185 18.8967 36.9185 18.71V13.572C36.9185 13.4227 36.9279 13.3153 36.9465 13.25C36.9652 13.1753 37.0352 13.096 37.1565 13.012L40.8385 10.52C40.9319 10.464 41.0159 10.422 41.0905 10.394C41.1745 10.3567 41.2772 10.338 41.3985 10.338H45.1785C45.4119 10.338 45.5285 10.4547 45.5285 10.688V13.068C45.5285 13.2733 45.4585 13.4133 45.3185 13.488L41.6505 15V17.59L45.3185 19.69C45.4585 19.7553 45.5285 19.9047 45.5285 20.138V26.228C45.5285 26.3027 45.5145 26.382 45.4865 26.466C45.4679 26.55 45.4212 26.6107 45.3465 26.648L40.9505 28.832C40.8945 28.86 40.8245 28.8973 40.7405 28.944C40.6659 28.9813 40.5912 29 40.5165 29H37.2685ZM53.7454 29C53.5214 29 53.3348 28.9207 53.1854 28.762L50.3854 25.962C50.2268 25.8127 50.1474 25.626 50.1474 25.402V13.95C50.1474 13.7167 50.2641 13.6 50.4974 13.6H54.2354C54.4688 13.6 54.5854 13.7167 54.5854 13.95V24.842C54.5854 25.2807 54.8001 25.5 55.2294 25.5H57.1474V13.95C57.1474 13.7167 57.2641 13.6 57.4974 13.6H61.2354C61.4688 13.6 61.5854 13.7167 61.5854 13.95V28.65C61.5854 28.8833 61.4688 29 61.2354 29H53.7454ZM66.8884 33.2C66.655 33.2 66.5384 33.0833 66.5384 32.85V13.95C66.5384 13.7167 66.655 13.6 66.8884 13.6H69.7864C69.9544 13.6 70.1177 13.6793 70.2764 13.838L70.9764 14.538L71.6764 13.838C71.8257 13.6793 72.0124 13.6 72.2364 13.6H74.3784C74.593 13.6 74.7797 13.6793 74.9384 13.838L77.7384 16.638C77.8971 16.7873 77.9764 16.974 77.9764 17.198V25.402C77.9764 25.626 77.8971 25.8127 77.7384 25.962L74.9384 28.762C74.7797 28.9207 74.593 29 74.3784 29H72.2364C72.0124 29 71.8257 28.9207 71.6764 28.762L70.9764 28.062V32.85C70.9764 33.0833 70.8597 33.2 70.6264 33.2H66.8884ZM70.9764 25.738H72.7404C73.0484 25.738 73.2584 25.6773 73.3704 25.556C73.4824 25.4347 73.5384 25.22 73.5384 24.912V17.688C73.5384 17.38 73.4824 17.1653 73.3704 17.044C73.2584 16.9227 73.0484 16.862 72.7404 16.862H71.7604C71.4617 16.862 71.2564 16.9227 71.1444 17.044C71.0324 17.1653 70.9764 17.38 70.9764 17.688V25.738ZM89.2013 29C89.108 29 89.0053 28.986 88.8933 28.958C88.7907 28.93 88.6927 28.9067 88.5993 28.888L86.1073 28.272L83.2513 27.32C82.9713 27.2267 82.8313 26.956 82.8313 26.508V17.198C82.8313 16.974 82.9107 16.7873 83.0693 16.638L85.8693 13.838C86.028 13.6793 86.2147 13.6 86.4293 13.6H90.9093C91.124 13.6 91.3107 13.6793 91.4693 13.838L94.2693 16.638C94.428 16.7873 94.5073 16.974 94.5073 17.198V22.938H86.9893L86.8913 24.8L88.8793 25.458L92.4493 25.71C92.608 25.738 92.6873 25.8453 92.6873 26.032V28.65C92.6873 28.8833 92.5707 29 92.3373 29H89.2013ZM88.6413 20.74H88.9073C89.3647 20.74 89.7287 20.5673 89.9993 20.222C90.2793 19.8767 90.4193 19.41 90.4193 18.822V18.542C90.4193 17.9633 90.2793 17.5013 89.9993 17.156C89.7287 16.8107 89.3647 16.638 88.9073 16.638H88.6273C88.1793 16.638 87.82 16.8107 87.5493 17.156C87.288 17.5013 87.1573 17.9633 87.1573 18.542V18.822C87.1573 19.41 87.288 19.8767 87.5493 20.222C87.82 20.5673 88.184 20.74 88.6413 20.74ZM99.4515 29C99.2182 29 99.1015 28.8833 99.1015 28.65V13.95C99.1015 13.7167 99.2182 13.6 99.4515 13.6H101.58C101.757 13.6 101.911 13.6793 102.042 13.838L103.414 15.42L104.94 13.768C105.042 13.656 105.173 13.6 105.332 13.6H106.844C107.077 13.6 107.194 13.7167 107.194 13.95V16.96C107.194 17.1093 107.184 17.212 107.166 17.268C107.147 17.3147 107.096 17.366 107.012 17.422L103.54 19.984V28.65C103.54 28.8833 103.423 29 103.19 29H99.4515Z" fill="#F7436E"/>
<path d="M117.03 29C116.797 29 116.68 28.8833 116.68 28.65V10.688C116.68 10.4547 116.797 10.338 117.03 10.338H126.62C126.854 10.338 126.97 10.4547 126.97 10.688V13.712C126.97 13.9453 126.854 14.062 126.62 14.062H121.342V18.738H125.92C126.154 18.738 126.27 18.8547 126.27 19.088V22.112C126.27 22.3453 126.154 22.462 125.92 22.462H121.342V28.65C121.342 28.8833 121.226 29 120.992 29H117.03ZM134.482 29C134.258 29 134.071 28.9207 133.922 28.762L131.122 25.962C130.963 25.8127 130.884 25.626 130.884 25.402V13.95C130.884 13.7167 131 13.6 131.234 13.6H134.972C135.205 13.6 135.322 13.7167 135.322 13.95V24.842C135.322 25.2807 135.536 25.5 135.966 25.5H137.884V13.95C137.884 13.7167 138 13.6 138.234 13.6H141.972C142.205 13.6 142.322 13.7167 142.322 13.95V28.65C142.322 28.8833 142.205 29 141.972 29H134.482ZM147.625 29C147.391 29 147.275 28.8833 147.275 28.65V13.95C147.275 13.7167 147.391 13.6 147.625 13.6H155.115C155.329 13.6 155.516 13.6793 155.675 13.838L158.475 16.638C158.633 16.7873 158.713 16.974 158.713 17.198V28.65C158.713 28.8833 158.596 29 158.363 29H154.625C154.391 29 154.275 28.8833 154.275 28.65V17.758C154.275 17.3193 154.055 17.1 153.617 17.1H151.713V28.65C151.713 28.8833 151.596 29 151.363 29H147.625ZM169.495 29C169.261 29 169.145 28.8833 169.145 28.65L169.131 24.1C169.131 24.0067 169.149 23.932 169.187 23.876C169.224 23.8107 169.275 23.736 169.341 23.652L173.765 18.262V15.42L169.341 13.712C169.201 13.6653 169.131 13.5253 169.131 13.292V10.688C169.131 10.4547 169.247 10.338 169.481 10.338H173.023C173.153 10.338 173.256 10.3567 173.331 10.394C173.405 10.4313 173.489 10.4733 173.583 10.52L178.203 12.55C178.324 12.5967 178.394 12.662 178.413 12.746C178.431 12.83 178.441 12.9513 178.441 13.11V19.158C178.441 19.2513 178.417 19.3213 178.371 19.368C178.333 19.4053 178.277 19.4753 178.203 19.578L173.821 24.912V25.472H178.833C179.066 25.472 179.183 25.5887 179.183 25.822V28.65C179.183 28.8833 179.066 29 178.833 29H169.495ZM184.392 29C184.158 29 184.042 28.8833 184.042 28.65V13.992L182.166 14.062C181.932 14.062 181.816 13.9453 181.816 13.712V10.688C181.816 10.4547 181.932 10.338 182.166 10.338H188.354C188.587 10.338 188.704 10.4547 188.704 10.688V28.65C188.704 28.8833 188.587 29 188.354 29H184.392Z" fill="#535353"/>
<path d="M25.3822 29.8125C23.8045 29.0318 23.3144 28.2497 23.0987 27.5946V11.489C23.3144 10.8338 23.8045 10.0517 25.3822 9.27103C27.3543 8.29513 31.4542 6.1659 31.039 3.94795C30.6238 1.73 27.1467 0 24.8113 0C22.6015 0 4.36369 1.90744 0.990352 7.58539C0.60977 8.02898 0 9.43072 0 11.489V20.1866V20.2269V27.5946C0 29.6528 0.60977 31.0546 0.990352 31.4981C4.36369 37.1761 22.6015 39.0835 24.8113 39.0835C27.1467 39.0835 30.6238 37.3535 31.039 35.1356C31.4542 32.9176 27.3543 30.7884 25.3822 29.8125Z" fill="#535353"/>
<ellipse cx="17.7719" cy="13.9319" rx="2.7719" ry="2.75026" fill="#F7436E"/>
<path d="M18.5213 22.2971H16.9563C16.8843 22.2971 16.8259 22.3551 16.8259 22.4265V23.6087C16.8259 23.8849 16.602 24.1087 16.3259 24.1087L15.1304 24.1087C15.0584 24.1087 15 24.1667 15 24.2381V25.791C15 25.8624 15.0584 25.9204 15.1304 25.9204L16.3259 25.9204C16.602 25.9204 16.8259 26.1442 16.8259 26.4204V27.6026C16.8259 27.674 16.8843 27.732 16.9563 27.732H18.5213C18.5934 27.732 18.6518 27.674 18.6518 27.6026V26.4204C18.6518 26.1442 18.8756 25.9204 19.1518 25.9204L20.3472 25.9204C20.4192 25.9204 20.4776 25.8624 20.4776 25.791V24.2381C20.4776 24.1667 20.4192 24.1087 20.3472 24.1087L19.1518 24.1087C18.8756 24.1087 18.6518 23.8849 18.6518 23.6087V22.4265C18.6518 22.3551 18.5934 22.2971 18.5213 22.2971Z" fill="#F7436E"/>
<ellipse cx="7.7719" cy="28.7503" rx="2.7719" ry="2.75026" fill="#F7436E"/>
<circle cx="6" cy="11" r="1" fill="#F7436E"/>
<circle cx="10" cy="11" r="1" fill="#F7436E"/>
<ellipse cx="8" cy="13" rx="1" ry="1" transform="rotate(-90 8 13)" fill="#F7436E"/>
<ellipse cx="8" cy="9" rx="1" ry="1" transform="rotate(-90 8 9)" fill="#F7436E"/>
</svg>
